<?xml version="1.0" encoding="utf-8"?>
<!-- Generator: Adobe Illustrator 18.1.1, SVG Export Plug-In . SVG Version: 6.00 Build 0)  -->
<svg version="1.1" id="Layer_1" xmlns="http://www.w3.org/2000/svg" xmlns:xlink="http://www.w3.org/1999/xlink" x="0px" y="0px"
	 viewBox="0 84.8 300 180" enable-background="new 0 84.8 300 180" xml:space="preserve">
<g>
	<polygon fill="#BCA780" points="0,84.8 49.5,116.5 49.5,182.4 98.9,205.5 98.9,264.8 0,206.5 	"/>
	<polygon fill="#1E1E1E" points="98.6,84.8 49.5,116.5 49.5,182.4 148.4,116.5 148.4,84.8 	"/>
	<polygon fill="#BCA780" points="197.8,84.8 250.5,116.5 250.5,182.4 148.4,116.5 148.4,84.8 	"/>
	<polygon fill="#E2DBCF" points="98.9,205.5 148.4,182.4 197.8,205.5 250.5,182.4 148.4,116.5 49.5,182.4 	"/>
	<polygon fill="#1E1E1E" points="98.9,264.8 98.9,205.5 148.4,182.4 148.4,264.8 	"/>
	<polygon fill="#BCA780" points="197.8,205.5 197.8,264.8 148.4,264.8 148.4,182.4 	"/>
	<polygon fill="#1E1E1E" points="250.5,182.4 250.5,118.1 300,84.8 300,205.5 197.8,264.8 197.8,205.5 	"/>
	<polygon fill="#E2DBCF" points="300,264.8 300,205.5 197.8,264.8 	"/>
	<polygon fill="#E2DBCF" points="197.8,84.8 300,84.8 250.5,118.1 	"/>
	<polygon fill="#E2DBCF" points="0,205.5 0,264.8 98.9,264.8 	"/>
	<polygon fill="#E2DBCF" points="0,84.8 98.6,84.8 49.5,116.5 	"/>
</g>
</svg>
