<?xml version="1.0" encoding="utf-8"?>
<!-- Generator: Adobe Illustrator 18.1.1, SVG Export Plug-In . SVG Version: 6.00 Build 0)  -->
<svg version="1.1" id="Layer_1" xmlns="http://www.w3.org/2000/svg" xmlns:xlink="http://www.w3.org/1999/xlink" x="0px" y="0px"
	 viewBox="0 0 91 54.5" enable-background="new 0 0 91 54.5" xml:space="preserve">
<g>
	<polygon fill="#BCA780" points="0,0 15,9.5 15,29.5 30,36.5 30,54.5 0,36.8 	"/>
	<polygon fill="#1E1E1E" points="29.8,0 15,9.5 15,29.5 45,9.5 45,-0.1 	"/>
	<polygon fill="#BCA780" points="60,-0.1 76,9.5 76,29.5 45,9.5 45,-0.1 	"/>
	<polygon fill="#E2DBCF" points="30,36.5 45,29.5 60,36.5 76,29.5 45,9.5 15,29.5 	"/>
	<polygon fill="#1E1E1E" points="30,54.5 30,36.5 45,29.5 45,54.5 	"/>
	<polygon fill="#BCA780" points="60,36.5 60,54.5 45,54.5 45,29.5 	"/>
	<polygon fill="#1E1E1E" points="76,29.5 76,10 91,-0.1 91,36.5 60,54.5 60,36.5 	"/>
	<polygon fill="#E2DBCF" points="91,54.5 91,36.5 60,54.5 	"/>
	<polygon fill="#E2DBCF" points="60,-0.1 91,-0.1 76,10 	"/>
	<polygon fill="#E2DBCF" points="0,36.5 0,54.5 30,54.5 	"/>
	<polygon fill="#E2DBCF" points="0,0 29.9,-0.1 15,9.5 	"/>
</g>
</svg>
